<?xml version="1.0" encoding="UTF-8" standalone="no"?>
<svg
   width="290.13779"
   height="33.717754"
   version="1.1"
   viewBox="0 0 290.13779 33.717754"
   id="svg452"
   xmlns="http://www.w3.org/2000/svg"
   xmlns:svg="http://www.w3.org/2000/svg">
  <defs
     id="defs434">
    <style
       id="style427">.cls-1{fill:#fff;}</style>
    <linearGradient
       id="linear-gradient"
       x2="514.21997"
       y1="243.89"
       y2="243.89"
       gradientTransform="scale(0.055923)"
       gradientUnits="userSpaceOnUse">
      <stop
         stop-color="#f0ff40"
         offset="0"
         id="stop429" />
      <stop
         stop-color="#9edcff"
         offset="1"
         id="stop431" />
    </linearGradient>
    <linearGradient
       id="linear-gradient-3"
       x1="0"
       y1="243.89"
       x2="514.21997"
       y2="243.89"
       gradientUnits="userSpaceOnUse"
       gradientTransform="matrix(0.05592354,0,0,0.05592354,0,-9e-6)">
      <stop
         offset="0"
         stop-color="#f0ff40"
         id="stop217" />
      <stop
         offset="1"
         stop-color="#9edcff"
         id="stop219" />
    </linearGradient>
  </defs>
  <g
     transform="scale(0.055923)"
     id="g444"
     style="fill:#1a1a1a">
    <path
       class="cls-1"
       d="m 1292.9,6.66 h -82.41 v 490.58 h 82.41 z"
       id="path436"
       style="fill:#1a1a1a" />
    <path
       class="cls-1"
       d="m 1446.9,6.66 h -82.41 v 490.58 h 82.41 z"
       id="path438"
       style="fill:#1a1a1a" />
    <path
       class="cls-1"
       d="m 1832.6,408.27 c 8.54,-20.25 12.81,-42.79 12.81,-67.17 0,-24.38 -4.34,-46.91 -12.81,-67.17 -8.46,-20.18 -20.53,-37.71 -35.76,-52.14 -15.3,-14.44 -33.77,-25.92 -54.81,-34.03 -21.19,-8.1 -44.74,-12.23 -70.05,-12.23 -25.31,0 -48.86,4.2 -69.98,12.52 -21.11,8.32 -39.58,19.89 -54.89,34.39 -15.23,14.44 -27.3,31.74 -35.76,51.48 -8.46,19.74 -12.8,41.69 -12.8,65.11 0,24.82 4.34,47.87 12.8,68.57 8.46,20.62 20.38,38.37 35.47,52.81 15.08,14.44 33.4,25.85 54.45,33.95 21.19,8.1 44.52,12.23 69.39,12.23 24.87,0 49.59,-4.12 71,-12.23 21.26,-8.1 39.81,-19.52 55.11,-34.02 15.23,-14.44 27.3,-31.96 35.76,-52.15 z m -94.33,3.17 c -16.55,17.82 -38.85,26.81 -66.29,26.81 -27.44,0 -49.74,-8.98 -66.29,-26.81 -16.41,-17.6 -24.73,-41.54 -24.73,-71.07 0,-29.53 8.32,-51.48 24.73,-69.3 16.55,-18.04 38.92,-27.18 66.37,-27.18 27.45,0 49.74,9.13 66.37,27.18 16.41,17.9 24.72,41.39 24.72,69.97 0,28.58 -8.31,52.73 -24.72,70.33 l -0.15,0.07 z"
       id="path440"
       style="fill:#1a1a1a" />
    <path
       class="cls-1"
       d="M 990.47,63.15 983.87,47.6 C 970.61,16.37 937.24,-0.15 905.26,6.66 l -7.34,16.8 c 0,0 -207.14,473.78 -207.14,473.78 h 90.28 l 42.97,-104.66 1.84,-4.57 h 212.2 l 1.84,4.71 40.39,104.51 h 94.33 z m -136.49,256.45 4.2,-10.16 30.09,-73.06 c 7.14,-17.01 13.98,-33.88 20.38,-50.16 6.33,-16.2 12.73,-33.07 19.06,-50.16 l 6.91,-18.78 6.92,18.78 c 6.4,17.45 12.73,34.39 18.69,50.23 6.25,16.57 12.51,33.36 18.76,50.3 l 28.11,72.99 3.83,10.02 z"
       id="path442"
       style="fill:#1a1a1a" />
  </g>
  <path
     d="m 122.58,28.254 h -2.5624 V 4.226 h 2.5624 z"
     fill="#282846"
     opacity="0.9"
     stroke-width="1.1647"
     id="path448" />
  <path
     class="cls-1"
     d="m 22.268191,19.89088 c -0.291915,-0.03746 -0.390909,-0.40824 -0.156578,-0.586067 2.942692,-2.236392 3.831876,-6.36522 1.93551,-9.6496109 L 18.472658,0 v 0 c -3.282144,1.8946929 -4.576222,5.9099979 -3.15129,9.3163051 0.113524,0.271229 -0.157696,0.5424582 -0.428934,0.428934 -3.406297,-1.425495 -7.42273,-0.131427 -9.317978,3.1507259 L 0,22.551168 v 0 c 3.278234,1.892459 7.396443,1.009982 9.6356258,-1.91818 0.1784,-0.233203 0.5480502,-0.134219 0.5855212,0.157142 0.471434,3.660208 3.598674,6.488258 7.386941,6.488258 H 28.757 c 0,-3.788262 -2.828605,-6.916065 -6.488809,-7.386936 z m -1.801856,-0.06147 h -9.42871 c -0.378596,0 -0.615154,-0.40993 -0.426133,-0.737644 l 4.71435,-8.165393 c 0.189021,-0.327713 0.662701,-0.327713 0.851722,0 l 4.71435,8.165393 c 0.189576,0.327714 -0.04755,0.737644 -0.426133,0.737644 z"
     id="path224"
     style="fill:url(#linear-gradient-3);stroke-width:0.0559238" />
  <text
     xml:space="preserve"
     style="font-style:normal;font-weight:normal;font-size:31.2861px;line-height:1.25;font-family:sans-serif;fill:#272746;fill-opacity:0.811765;stroke:none;stroke-width:0.782152"
     x="135.44878"
     y="27.210003"
     id="text1958"><tspan
       id="tspan1956"
       x="135.44878"
       y="27.210003"
       style="fill:#272746;fill-opacity:0.811765;stroke-width:0.782152">strategies</tspan></text>
</svg>
