<?xml version="1.0" encoding="UTF-8" standalone="no"?>
<svg
   width="300"
   height="28.33"
   version="1.1"
   viewBox="0 0 300 28.33"
   id="svg452"
   sodipodi:docname="alloLogo.svg"
   inkscape:version="1.1.2 (0a00cf5339, 2022-02-04)"
   xmlns:inkscape="http://www.inkscape.org/namespaces/inkscape"
   xmlns:sodipodi="http://sodipodi.sourceforge.net/DTD/sodipodi-0.dtd"
   xmlns="http://www.w3.org/2000/svg"
   xmlns:svg="http://www.w3.org/2000/svg">
  <sodipodi:namedview
     id="namedview454"
     pagecolor="#ffffff"
     bordercolor="#666666"
     borderopacity="1.0"
     inkscape:pageshadow="2"
     inkscape:pageopacity="0.0"
     inkscape:pagecheckerboard="0"
     showgrid="false"
     inkscape:zoom="3.021703"
     inkscape:cx="3.9712705"
     inkscape:cy="104.90773"
     inkscape:window-width="2560"
     inkscape:window-height="1371"
     inkscape:window-x="0"
     inkscape:window-y="32"
     inkscape:window-maximized="1"
     inkscape:current-layer="svg452" />
  <defs
     id="defs434">
    <style
       id="style427">.cls-1{fill:#fff;}</style>
    <linearGradient
       id="linear-gradient"
       x2="514.22"
       y1="243.89"
       y2="243.89"
       gradientTransform="scale(.055923)"
       gradientUnits="userSpaceOnUse">
      <stop
         stop-color="#f0ff40"
         offset="0"
         id="stop429" />
      <stop
         stop-color="#9edcff"
         offset="1"
         id="stop431" />
    </linearGradient>
    <linearGradient
       id="linear-gradient-3"
       x1="0"
       y1="243.89"
       x2="514.21997"
       y2="243.89"
       gradientUnits="userSpaceOnUse"
       gradientTransform="matrix(0.05592354,0,0,0.05592354,0,-9e-6)">
      <stop
         offset="0"
         stop-color="#f0ff40"
         id="stop217" />
      <stop
         offset="1"
         stop-color="#9edcff"
         id="stop219" />
    </linearGradient>
  </defs>
  <g
     transform="scale(.055923)"
     id="g444"
     style="fill:#1a1a1a">
    <path
       class="cls-1"
       d="m1292.9 6.66h-82.41v490.58h82.41z"
       id="path436"
       style="fill:#1a1a1a" />
    <path
       class="cls-1"
       d="m1446.9 6.66h-82.41v490.58h82.41z"
       id="path438"
       style="fill:#1a1a1a" />
    <path
       class="cls-1"
       d="m1832.6 408.27c8.54-20.25 12.81-42.79 12.81-67.17s-4.34-46.91-12.81-67.17c-8.46-20.18-20.53-37.71-35.76-52.14-15.3-14.44-33.77-25.92-54.81-34.03-21.19-8.1-44.74-12.23-70.05-12.23s-48.86 4.2-69.98 12.52c-21.11 8.32-39.58 19.89-54.89 34.39-15.23 14.44-27.3 31.74-35.76 51.48s-12.8 41.69-12.8 65.11c0 24.82 4.34 47.87 12.8 68.57 8.46 20.62 20.38 38.37 35.47 52.81 15.08 14.44 33.4 25.85 54.45 33.95 21.19 8.1 44.52 12.23 69.39 12.23s49.59-4.12 71-12.23c21.26-8.1 39.81-19.52 55.11-34.02 15.23-14.44 27.3-31.96 35.76-52.15zm-94.33 3.17c-16.55 17.82-38.85 26.81-66.29 26.81s-49.74-8.98-66.29-26.81c-16.41-17.6-24.73-41.54-24.73-71.07s8.32-51.48 24.73-69.3c16.55-18.04 38.92-27.18 66.37-27.18s49.74 9.13 66.37 27.18c16.41 17.9 24.72 41.39 24.72 69.97s-8.31 52.73-24.72 70.33l-0.15 0.07z"
       id="path440"
       style="fill:#1a1a1a" />
    <path
       class="cls-1"
       d="m990.47 63.15-6.6-15.55c-13.26-31.23-46.63-47.75-78.61-40.94l-7.34 16.8s-207.14 473.78-207.14 473.78h90.28l42.97-104.66 1.84-4.57h212.2l1.84 4.71 40.39 104.51h94.33zm-136.49 256.45 4.2-10.16 30.09-73.06c7.14-17.01 13.98-33.88 20.38-50.16 6.33-16.2 12.73-33.07 19.06-50.16l6.91-18.78 6.92 18.78c6.4 17.45 12.73 34.39 18.69 50.23 6.25 16.57 12.51 33.36 18.76 50.3l28.11 72.99 3.83 10.02z"
       id="path442"
       style="fill:#1a1a1a" />
  </g>
  <path
     d="m145.15 27.983c-5.2203 0-8.8775-3.9561-8.8775-9.0758 0-5.1195 3.7574-9.0756 8.8449-9.0756 3.7574 0 7.2481 2.2606 8.1798 6.1169h-2.7266c-0.69884-2.2606-2.8932-3.7234-5.3868-3.7234-3.691 0-6.1847 2.9256-6.1847 6.6821 0 3.8896 2.6264 6.6821 6.2511 6.6821 2.4937 0 4.7218-1.4628 5.3868-3.7234h2.6928c-0.89799 3.8564-4.4224 6.117-8.1798 6.117zm21.132 0c-5.1865 0-9.0103-3.8231-9.0103-9.0758 0-5.2194 3.8902-9.0756 9.0441-9.0756 5.2203 0 9.0103 3.8896 9.0103 9.0756 0 5.1862-3.8564 9.0758-9.0441 9.0758zm0-2.3936c3.7248 0 6.3512-2.8257 6.3512-6.6821 0-3.8231-2.6264-6.6821-6.3512-6.6821-3.7236 0-6.3174 2.8924-6.3174 6.6821 0 3.8896 2.6264 6.6821 6.3174 6.6821zm14.316 1.9614v-17.287h2.6265v2.5266h0.19916c0.73146-1.5625 2.5938-2.9587 5.2867-2.9587 4.0241 0 6.4514 3.0253 6.4514 6.8483v10.871h-2.6276v-10.705c0-2.7593-2.0278-4.5545-4.4551-4.5545-2.7266 0-4.8546 2.0944-4.8546 4.9535v10.306zm27.582 0c-3.1925 0-5.1539-1.7287-5.1539-5.2194v-9.8403h-3.2589v-2.2274h2.5938c0.46589 0 0.83162-0.29922 0.83162-0.86434v-4.1555h2.4599v5.0198h5.3205v2.2274h-5.3205v9.8071c0 1.8617 0.69882 2.9587 2.6928 2.9587h2.3947v2.2938zm8.0633 0v-17.287h2.5938v3.2248h0.19916c0.49851-1.4628 2.1943-3.2248 4.7218-3.2248h1.4629v2.6263h-1.4291c-3.1587 0-4.9221 2.4601-4.9221 5.7513v8.9094zm20.533 0.43223c-5.0875 0-8.612-3.7566-8.612-9.0424 0-5.3192 3.5245-9.1089 8.4128-9.1089 3.6246 0 5.5522 2.3271 6.0845 3.2247h0.19919v-2.7925h2.6276v17.287h-2.5274v-2.726h-0.19917c-0.43212 0.63174-2.2281 3.1583-5.9855 3.1583zm0.16656-2.3603c3.7574 0 6.0181-3.0586 6.0181-6.6821 0-4.2553-2.6602-6.7154-6.0845-6.7154-3.5582 0-6.0181 2.7925-6.0181 6.7154 0 4.0558 2.4599 6.6821 6.0845 6.6821zm22.362 2.3603c-5.2203 0-8.8775-3.9561-8.8775-9.0758 0-5.1195 3.7562-9.0756 8.8437-9.0756 3.7574 0 7.2492 2.2606 8.1798 6.1169h-2.7266c-0.69769-2.2606-2.892-3.7234-5.3868-3.7234-3.6898 0-6.1847 2.9256-6.1847 6.6821 0 3.8896 2.6276 6.6821 6.2522 6.6821 2.4937 0 4.7206-1.4628 5.3857-3.7234h2.694c-0.89801 3.8564-4.4224 6.117-8.1798 6.117zm20.2-0.43223c-3.1914 0-5.1539-1.7287-5.1539-5.2194v-9.8403h-3.2577v-2.2274h2.5927c0.46589 0 0.83161-0.29922 0.83161-0.86434v-4.1555h2.4611v5.0198h5.3193v2.2274h-5.3193v9.8071c0 1.8617 0.69766 2.9587 2.6928 2.9587h2.3935v2.2938zm13.783 0.43223c-4.0894 0-6.4176-2.2274-6.717-5.4521h2.56c0.29934 2.0611 1.7634 3.1583 4.2897 3.1583 2.5938 0 4.023-1.2634 4.023-3.0253 0-4.8538-10.34-1.1636-10.34-8.0119 0-2.9256 2.6264-4.8204 6.2511-4.8204 3.1925 0 5.8527 1.8617 6.1183 4.9866h-2.5274c-0.23295-1.629-1.4629-2.726-3.7574-2.726-2.1606 0-3.5571 1.0637-3.5571 2.5598 0 4.3882 10.374 0.73133 10.374 7.8789 0 3.258-2.694 5.4521-6.717 5.4521z"
     fill="#282846"
     opacity=".9"
     stroke-width="1.1647"
     id="path446" />
  <path
     d="m122.58 28.254h-2.5624v-24.028h2.5624z"
     fill="#282846"
     opacity=".9"
     stroke-width="1.1647"
     id="path448" />
  <path
     class="cls-1"
     d="m 22.268191,19.89088 c -0.291915,-0.03746 -0.390909,-0.40824 -0.156578,-0.586067 2.942692,-2.236392 3.831876,-6.36522 1.93551,-9.6496109 L 18.472658,0 v 0 c -3.282144,1.8946929 -4.576222,5.9099979 -3.15129,9.3163051 0.113524,0.271229 -0.157696,0.5424582 -0.428934,0.428934 -3.406297,-1.425495 -7.42273,-0.131427 -9.317978,3.1507259 L 0,22.551168 v 0 c 3.278234,1.892459 7.396443,1.009982 9.6356258,-1.91818 0.1784,-0.233203 0.5480502,-0.134219 0.5855212,0.157142 0.471434,3.660208 3.598674,6.488258 7.386941,6.488258 H 28.757 c 0,-3.788262 -2.828605,-6.916065 -6.488809,-7.386936 z m -1.801856,-0.06147 h -9.42871 c -0.378596,0 -0.615154,-0.40993 -0.426133,-0.737644 l 4.71435,-8.165393 c 0.189021,-0.327713 0.662701,-0.327713 0.851722,0 l 4.71435,8.165393 c 0.189576,0.327714 -0.04755,0.737644 -0.426133,0.737644 z"
     id="path224"
     style="fill:url(#linear-gradient-3);stroke-width:0.0559238" />
</svg>
